<svg xmlns="http://www.w3.org/2000/svg" height="18px" viewBox="0 0 24 24" width="18px" fill="#5F6368">
	<path d="M17.66 12l2.83-2.83c.78-.78.78-2.05 0-2.83l-2.83-2.83c-.78-.78-2.05-.78-2.83 0L12 6.34 9.17 3.51c-.39-.39-.9-.59-1.41-.59s-1.02.2-1.41.59L3.51 6.34c-.78.78-.78 2.05 0 2.83L6.34 12l-2.83 2.83c-.78.78-.78 2.05 0 2.83l2.83 2.83c.78.78 2.05.78 2.83 0L12 17.66l2.83 2.83c.39.39.9.59 1.41.59s1.02-.2 1.41-.59l2.83-2.83c.78-.78.78-2.05 0-2.83L17.66 12zM4.93 7.76l2.83-2.83 2.83 2.83-2.83 2.83-2.83-2.83zm5.66 4.95c-.39.39-1.02.39-1.41 0s-.39-1.02 0-1.41c.39-.39 1.02-.39 1.41 0 .39.38.39 1.02 0 1.41zm2.12 2.12c-.39.39-1.02.39-1.41 0-.39-.39-.39-1.02 0-1.41.39-.39 1.02-.39 1.41 0 .39.38.39 1.02 0 1.41zm0-4.24c-.39.39-1.02.39-1.41 0-.39-.39-.39-1.02 0-1.41.39-.39 1.02-.39 1.41 0 .39.38.39 1.02 0 1.41zm.7.7c.39-.39 1.02-.39 1.41 0 .39.39.39 1.02 0 1.41s-1.02.39-1.41 0c-.39-.38-.39-1.02 0-1.41zm2.83 7.78l-2.83-2.83 2.83-2.83 2.83 2.83-2.83 2.83z" />
	<path d="M0 0h24v24H0V0z" fill="none" />
</svg>
