<?xml version="1.0" encoding="UTF-8"?>
<svg width="18px" height="20px" viewBox="0 0 18 20" version="1.1" xmlns="http://www.w3.org/2000/svg" xmlns:xlink="http://www.w3.org/1999/xlink">
    <!-- Generator: Sketch 64 (93537) - https://sketch.com -->
    <title>Shape</title>
    <desc>Created with Sketch.</desc>
    <g id="Bot-interface" stroke="none" stroke-width="1" fill="none" fill-rule="evenodd">
        <g id="Mock_2" transform="translate(-1491.000000, -205.000000)" fill="#5F6368" fill-rule="nonzero">
            <g id="Group-13" transform="translate(1472.000000, 189.000000)">
                <g id="action_accessibility_new_black_18dp" transform="translate(16.000000, 14.000000)">
                    <path d="M20.5,6 C17.89,6.7 14.83,7 12,7 C9.17,7 6.11,6.7 3.5,6 L3,8 C4.86,8.5 7,8.83 9,9 L9,22 L11,22 L11,16 L13,16 L13,22 L15,22 L15,9 C17,8.83 19.14,8.5 21,8 L20.5,6 Z M12,6 C13.1,6 14,5.1 14,4 C14,2.9 13.1,2 12,2 C10.9,2 10,2.9 10,4 C10,5.1 10.9,6 12,6 Z" id="Shape"></path>
                </g>
            </g>
        </g>
    </g>
</svg>