<svg xmlns="http://www.w3.org/2000/svg" xmlns:xlink="http://www.w3.org/1999/xlink" width="18" height="18" version="1.1" viewBox="0 0 18 18"><title>ic/news</title><desc>Created with Sketch.</desc><defs><path id="path-1" d="M15,3 L5,3 C3.9,3 3.01,3.9 3.01,5 L3,19 C3,20.1 3.89,21 4.99,21 L19,21 C20.1,21 21,20.1 21,19 L21,9 L15,3 Z M5,19 L5,5 L14,5 L14,10 L19,10 L19,19 L5,19 Z M12,10 L7,10 L7,8 L12,8 L12,10 Z M17,13.5 L7,13.5 L7,11.5 L17,11.5 L17,13.5 Z M17,17 L7,17 L7,15 L17,15 L17,17 Z"/></defs><g id="Bot-interface" fill="none" fill-rule="evenodd" stroke="none" stroke-width="1"><g id="Mock_2" transform="translate(-1491.000000, -522.000000)"><g id="Group-9" transform="translate(1472.000000, 509.000000)"><g id="ic/news" transform="translate(16.000000, 10.000000)"><g id="news"><mask id="mask-2" fill="#fff"><use xlink:href="#path-1"/></mask><g id="c/grey/700" fill="#5F6368" mask="url(#mask-2)"><rect id="Shape" width="24" height="24" x="0" y="0"/></g></g></g></g></g></g></svg>