<svg xmlns="http://www.w3.org/2000/svg" xmlns:xlink="http://www.w3.org/1999/xlink" width="18" height="18" version="1.1" viewBox="0 0 18 18"><title>ic/local_hospital</title><desc>Created with Sketch.</desc><defs><path id="path-1" d="M16,0 C17.1,0 18,0.9 18,2 L18,2 L18,16 C18,17.1 17.1,18 16,18 L16,18 L2,18 C0.9,18 0,17.1 0,16 L0,16 L0.01,2 C0.01,0.9 0.9,0 2,0 L2,0 Z M16,2 L2,2 L2,16 L16,16 L16,2 Z M10.5,4 L10.5,7.5 L14,7.5 L14,10.5 L10.5,10.5 L10.5,14 L7.5,14 L7.5,10.5 L4,10.5 L4,7.5 L7.5,7.5 L7.5,4 L10.5,4 Z"/></defs><g id="Bot-interface" fill="none" fill-rule="evenodd" stroke="none" stroke-width="1"><g id="Mock_2" transform="translate(-1491.000000, -443.000000)"><g id="Group-10" transform="translate(1472.000000, 429.000000)"><g id="ic/local_hospital" transform="translate(19.000000, 14.000000)"><g id="local_hospital"><mask id="mask-2" fill="#fff"><use xlink:href="#path-1"/></mask><use id="Combined-Shape" fill="#5F6368" fill-rule="nonzero" xlink:href="#path-1"/></g></g></g></g></g></svg>