<svg xmlns="http://www.w3.org/2000/svg" xmlns:xlink="http://www.w3.org/1999/xlink" width="20" height="13" version="1.1" viewBox="0 0 20 13"><title>ic/manage_search</title><desc>Created with Sketch.</desc><defs><path id="path-1" d="M8,9 L2,9 L2,7 L8,7 L8,9 Z M8,12 L2,12 L2,14 L8,14 L8,12 Z M20.59,19 L16.76,15.17 C15.96,15.69 15.02,16 14,16 C11.24,16 9,13.76 9,11 C9,8.24 11.24,6 14,6 C16.76,6 19,8.24 19,11 C19,12.02 18.69,12.96 18.17,13.75 L22,17.59 L20.59,19 Z M17,11 C17,9.35 15.65,8 14,8 C12.35,8 11,9.35 11,11 C11,12.65 12.35,14 14,14 C15.65,14 17,12.65 17,11 Z M2,19 L15,19 L15,17 L2,17 L2,19 Z"/></defs><g id="Bot-interface" fill="none" fill-rule="evenodd" stroke="none" stroke-width="1"><g id="Mock_2" transform="translate(-1490.000000, -607.000000)"><g id="Group-8" transform="translate(1472.000000, 589.000000)"><g id="ic/manage_search" transform="translate(16.000000, 12.000000)"><g id="manage_search"><mask id="mask-2" fill="#fff"><use xlink:href="#path-1"/></mask><g id="c/grey/700" fill="#5F6368" mask="url(#mask-2)"><rect id="Shape" width="24" height="24" x="0" y="0"/></g></g></g></g></g></g></svg>