<svg xmlns="http://www.w3.org/2000/svg" xmlns:xlink="http://www.w3.org/1999/xlink" id="Layer_1" x="0" y="0" version="1.1" viewBox="0 0 392.533 392.533" xml:space="preserve" style="enable-background:new 0 0 392.533 392.533"><g><g><path d="M359.372,138.214H207.259V94.966c21.333-4.913,37.236-24.048,37.236-46.804C244.495,21.657,222.968,0,196.333,0 s-48.162,21.657-48.162,48.162c0,22.82,15.903,41.891,37.236,46.804v43.249H33.295c-30.513,1.681-35.103,28.509-32.711,39.046 l33.099,187.863c2.78,15.903,16.549,27.41,32.711,27.41h259.943c16.162,0,29.931-11.507,32.711-27.41l33.099-187.863 C393.828,167.499,390.337,140.089,359.372,138.214z M169.958,48.162c0-14.545,11.83-26.376,26.376-26.376 s26.376,11.83,26.376,26.376s-11.83,26.376-26.376,26.376S169.958,62.642,169.958,48.162z M370.556,173.446l-33.099,187.863 c-0.905,5.495-5.689,9.438-11.184,9.438H66.329c-5.56,0-10.279-3.943-11.184-9.438L22.111,173.446 c-0.646-3.426,0.453-13.382,11.184-13.382h326.077C371.461,160.129,371.202,170.085,370.556,173.446z"/></g></g><g><g><path d="M106.733,179.717c-26.57,0-48.162,21.657-48.162,48.162c0,26.57,21.657,48.162,48.162,48.162 c26.634,0,48.162-21.657,48.162-48.162C154.895,201.309,133.238,179.717,106.733,179.717z M106.798,254.19 c-14.545,0-26.376-11.83-26.376-26.376s11.83-26.376,26.376-26.376s26.376,11.83,26.376,26.376 C133.109,242.424,121.279,254.19,106.798,254.19z"/></g></g><g><g><path d="M284.511,179.717c-26.57,0-48.162,21.657-48.162,48.162c0,26.57,21.657,48.162,48.162,48.162 c26.57,0,48.162-21.657,48.162-48.162C332.673,201.309,311.081,179.717,284.511,179.717z M284.511,254.19 c-14.545,0-26.376-11.83-26.376-26.376s11.83-26.376,26.376-26.376c14.545,0,26.376,11.83,26.376,26.376 S299.057,254.19,284.511,254.19z"/></g></g><g><g><path d="M265.958,320.517c-2.069-5.56-8.404-8.404-14.093-6.335c-15.58,5.883-35.297,9.115-55.531,9.115 s-40.016-3.232-55.531-9.115c-5.624-2.133-11.895,0.711-14.093,6.335c-2.069,5.624,0.711,11.895,6.335,14.093 c18.23,6.852,40.081,10.537,63.289,10.537s45.059-3.62,63.289-10.537C265.246,332.541,268.091,326.206,265.958,320.517z"/></g></g></svg>