<?xml version="1.0" encoding="UTF-8"?>
<svg width="18px" height="22px" viewBox="0 0 18 22" version="1.1" xmlns="http://www.w3.org/2000/svg" xmlns:xlink="http://www.w3.org/1999/xlink">
    <!-- Generator: Sketch 64 (93537) - https://sketch.com -->
    <title>hardware/headset_mic_24px copy 2</title>
    <desc>Created with Sketch.</desc>
    <defs>
        <path d="M12,1 C7.03,1 3,5.03 3,10 L3,17 C3,18.66 4.34,20 6,20 L9,20 L9,12 L5,12 L5,10.29 C5,6.45 7.96,3.11 11.79,3 C15.76,2.89 19,6.06 19,10 L19,12 L15,12 L15,20 L19,20 L19,21 L13,21 L13,23 L19,23 C20.1,23 21,22.1 21,21 L21,10 C21,5.03 16.97,1 12,1 Z M7,14 L7,18 L6,18 C5.45,18 5,17.55 5,17 L5,14 L7,14 Z M19,18 L17,18 L17,14 L19,14 L19,18 Z" id="path-1"></path>
    </defs>
    <g id="Bot-interface" stroke="none" stroke-width="1" fill="none" fill-rule="evenodd">
        <g id="Final" transform="translate(-635.000000, -437.000000)">
            <g id="Group-9" transform="translate(616.000000, 192.000000)">
                <g id="Group-3" transform="translate(0.000000, 80.000000)">
                    <g id="Group-7" transform="translate(16.000000, 164.000000)">
                        <g id="hardware/headset_mic_24px" transform="translate(0.000000, 0.000000)">
                            <mask id="mask-2" fill="white">
                                <use xlink:href="#path-1"></use>
                            </mask>
                            <g id="ic_headset_mic_24px" fill-rule="nonzero"></g>
                            <g id="_c/Grey/700" mask="url(#mask-2)" fill="#5F6368" fill-rule="evenodd">
                                <rect id="swatch" x="0" y="0" width="24" height="24"></rect>
                            </g>
                        </g>
                    </g>
                </g>
            </g>
        </g>
    </g>
</svg>